#!OML:ASF I:\salsa\salsa 7_09\Patient 1\Session 1\dancermale.ASF
:FULLY-SPECIFIED
:DEGREES
1440
root 0.994199 16.6568 -8.22942 1117.15 79.5506 -333.144
lowerback -6.88638 4.32145 0.799517
upperback -2.53715 5.75784 0.0408697
thorax 1.30115 2.8991 0.0525749
lowerneck -15.965 -9.06972 -6.45966
upperneck 10.2777 52.1378 8.60886
head 393.679 63.3311 -542.126
rclavicle 1.52816e-014 -1.74931e-014
rhumerus 18.1688 -44.6729 -83.52
rradius 63.4102
rwrist 5.9992
rhand -63.6086 10.2967
rfingers 7.12502
rthumb -35.5801 -16.1219
lclavicle 1.52816e-014 -1.74931e-014
lhumerus -35.7016 -28.3625 95.9346
lradius 121.832
lwrist 25.0031
lhand -21.3582 44.4586
lfingers 7.12502
lthumb 5.02848 1154.38
rfemur -10.8529 -9.40175 18.4298
rtibia 54.7464
rfoot -9.42037 -12.9744
rtoes 11.7518
lfemur -36.8972 -10.9255 -21.7807
ltibia 36.4743
lfoot -20.0114 -10.0327
ltoes -21.0604
1441
root 0.839043 16.6424 -8.22005 1116.19 79.1121 -334.439
lowerback -7.07677 4.59518 0.862068
upperback -2.63452 6.12367 -0.220532
thorax 1.34334 3.08192 -0.206079
lowerneck -16.0764 -9.24391 -6.19439
upperneck 10.0839 51.7851 8.49895
head 393.7 63.0664 -542.005
rclavicle 5.68027e-014 7.95139e-015
rhumerus 19.01 -41.5567 -86.0145
rradius 64.6518
rwrist 6.23057
rhand -61.8094 5.84693
rfingers 7.12502
rthumb -33.8726 -20.965
lclavicle 5.68027e-014 7.95139e-015
lhumerus -32.8136 -30.3562 96.0471
lradius 120.622
lwrist 26.3601
lhand -20.2737 44.0029
lfingers 7.12502
lthumb 6.07557 1153.9
rfemur -9.17222 -9.26066 18.855
rtibia 50.7087
rfoot -12.5844 -14.3006
rtoes 7.09938
lfemur -37.9684 -11.093 -21.3324
ltibia 36.7673
lfoot -18.9857 -9.56683
ltoes -20.0684
1442
root 0.679717 16.6351 -8.21259 1113.71 78.5447 -337.461
lowerback -7.30681 4.93104 1.23838
upperback -2.81714 6.55242 -0.445214
thorax 1.35438 3.29607 -0.591782
lowerneck -16.1895 -9.38737 -5.89581
upperneck 9.88456 51.4452 8.37095
head 393.731 62.7283 -541.833
rclavicle -1.08835e-014 -4.77083e-015
rhumerus 19.1834 -36.5906 -86.2136
rradius 62.9101
rwrist 3.79145
rhand -63.8862 3.75682
rfingers 7.12502
rthumb -35.8431 -22.5981
lclavicle -1.08835e-014 -4.77083e-015
lhumerus -30.0437 -32.1688 96.1475
lradius 119.126
lwrist 27.8914
lhand -19.1022 43.4527
lfingers 7.12502
lthumb 7.20649 1153.31
rfemur -8.14967 -8.77944 19.5243
rtibia 47.1516
rfoot -15.2189 -15.2375
rtoes 4.27234
lfemur -39.4529 -11.2633 -20.4259
ltibia 37.4499
lfoot -18.0079 -8.59352
ltoes -18.8997
1443
root 0.526515 16.6249 -8.20509 1110.76 77.8718 -340.847
lowerback -7.50371 5.25891 1.62507
upperback -2.92198 6.9644 -0.557737
thorax 1.42219 3.50131 -0.865675
lowerneck -16.2062 -9.41268 -5.33625
upperneck 10.1406 51.6756 8.71605
head 393.878 62.5531 -541.926
rclavicle 2.57178e-014 1.27222e-014
rhumerus 18.7525 -30.5947 -85.4931
rradius 61.7278
rwrist -0.219048
rhand -62.0365 5.89013
rfingers 7.12502
rthumb -34.0884 -20.874
lclavicle 2.57178e-014 1.27222e-014
lhumerus -27.5302 -33.785 96.399
lradius 117.455
lwrist 29.4967
lhand -18.551 43.1558
lfingers 7.12502
lthumb 7.73853 1152.99
rfemur -7.92916 -8.04713 20.2117
rtibia 45.1618
rfoot -17.7813 -15.7592
rtoes 1.47019
lfemur -40.8647 -11.4408 -19.384
ltibia 38.2934
lfoot -17.1304 -7.26466
ltoes -17.8904
1444
root 0.387886 16.6095 -8.19343 1107.9 77.5067 -343.869
lowerback -7.68371 5.41813 1.98426
upperback -2.80502 7.14178 -0.495912
thorax 1.68212 3.58938 -0.954885
lowerneck -16.4302 -9.43749 -4.85594
upperneck 10.1321 51.7668 8.7557
head 394.164 62.2645 -541.632
rclavicle 1.00883e-014 1.03368e-014
rhumerus 18.0693 -23.5671 -84.0372
rradius 61.2648
rwrist -5.42233
rhand -62.9895 5.5352
rfingers 7.12502
rthumb -34.993 -21.0225
lclavicle 1.00883e-014 1.03368e-014
lhumerus -25.2139 -35.0594 96.7198
lradius 115.669
lwrist 30.8464
lhand -18.4866 43.1027
lfingers 7.12502
lthumb 7.80071 1152.94
rfemur -7.34883 -7.25796 20.9527
rtibia 43.2656
rfoot -19.6971 -15.8617
rtoes -0.521505
lfemur -41.8759 -11.798 -18.2986
ltibia 39.0899
lfoot -16.3278 -5.90711
ltoes -17.2371
1445
root 0.250107 16.5921 -8.17775 1104.2 76.9088 -347.737
lowerback -7.80802 5.56856 2.3171
upperback -2.61404 7.3031 -0.291094
thorax 1.96723 3.6703 -0.885432
lowerneck -16.8488 -9.29784 -4.52248
upperneck 10.0435 51.9016 8.73593
head 394.265 62.0722 -541.582
rclavicle -5.30258e-014 -5.56597e-015
rhumerus 17.9968 -18.4451 -84.8821
rradius 63.2977
rwrist -7.77892
rhand -61.7579 1.46486
rfingers 7.12502
rthumb -33.8237 -25.3579
lclavicle -5.30258e-014 -5.56597e-015
lhumerus -23.1591 -35.9032 96.9647
lradius 113.765
lwrist 31.8078
lhand -18.6905 43.1376
lfingers 7.12502
lthumb 7.60386 1152.98
rfemur -7.14852 -6.06554 21.8101
rtibia 42.0293
rfoot -21.271 -15.4353
rtoes -1.75828
lfemur -42.8989 -11.4463 -17.2149
ltibia 40.0273
lfoot -15.5048 -4.48297
ltoes -17.003
